<?xml version="1.0" encoding="UTF-8"?>
<svg version="1.1" xmlns="http://www.w3.org/2000/svg" width="521" height="143">
<path d="M0 0 C171.93 0 343.86 0 521 0 C521 47.19 521 94.38 521 143 C349.07 143 177.14 143 0 143 C0 95.81 0 48.62 0 0 Z " fill="#FCFAFB" transform="translate(0,0)"/>
<path d="M0 0 C171.93 0 343.86 0 521 0 C521 47.19 521 94.38 521 143 C349.07 143 177.14 143 0 143 C0 95.81 0 48.62 0 0 Z M43 13 C43 50.29 43 87.58 43 126 C191.17 126 339.34 126 492 126 C492 88.71 492 51.42 492 13 C343.83 13 195.66 13 43 13 Z " fill="#DE4B59" transform="translate(0,0)"/>
<path d="M0 0 C32.42553191 0 32.42553191 0 39.5 5.9375 C43.52964627 10.87381669 43.45621132 15.69257006 43.41796875 21.94140625 C42.77536686 26.64381074 40.6245718 29.9656681 37 33 C34.796875 33.70703125 34.796875 33.70703125 33 34 C33.35191406 34.70382813 33.70382813 35.40765625 34.06640625 36.1328125 C38.04427083 44.08854167 42.02213542 52.04427083 46 60 C41.71 60 37.42 60 33 60 C31.35391711 56.87513122 29.7081225 53.75011122 28.0625 50.625 C27.59392578 49.73554687 27.12535156 48.84609375 26.64257812 47.9296875 C26.19462891 47.07890625 25.74667969 46.228125 25.28515625 45.3515625 C24.87144775 44.56604004 24.45773926 43.78051758 24.03149414 42.97119141 C23.34211376 41.65378141 22.66495329 40.32990658 22 39 C18.34850439 38.39616453 14.69649725 38.25493084 11 38 C11 45.26 11 52.52 11 60 C7.37 60 3.74 60 0 60 C0 40.2 0 20.4 0 0 Z " fill="#030303" transform="translate(73,37)"/>
<path d="M0 0 C2.875 2.4375 2.875 2.4375 5 5 C5.598125 5.639375 6.19625 6.27875 6.8125 6.9375 C8.40513301 9.70365208 8.21368373 11.86597201 8 15 C4.27299061 15.34699743 0.71327301 15.54118409 -3 15 C-5.5625 12.0625 -5.5625 12.0625 -7 9 C-9.46369532 7.76815234 -11.1894501 7.83267658 -13.9375 7.8125 C-15.25041016 7.79123047 -15.25041016 7.79123047 -16.58984375 7.76953125 C-19.26244335 7.83336651 -19.26244335 7.83336651 -22 10 C-22.75045506 13.41456334 -22.75045506 13.41456334 -22 17 C-17.9777941 20.21535621 -14.07962479 21.77851914 -9.1875 23.25 C-2.31749053 25.58609432 4.60861056 29.21722111 8 36 C8.50071209 41.48320778 8.68802916 46.39459862 6.5 51.5 C0.87224576 57.12775424 -5.87392764 59.11843742 -13.6875 59.3125 C-21.09708147 59.2402114 -26.23965421 57.34029317 -31.875 52.5625 C-36.0451169 47.53382962 -37 45.84914516 -37 39 C-33.04 39 -29.08 39 -25 39 C-24.34 41.64 -23.68 44.28 -23 47 C-19.55277634 47.86180592 -16.94370835 48.16364824 -13.4375 48.1875 C-12.01244141 48.20876953 -12.01244141 48.20876953 -10.55859375 48.23046875 C-7.75774757 48.18358888 -7.75774757 48.18358888 -5 46 C-4.63637182 43.79274927 -4.63637182 43.79274927 -4.8125 41.375 C-4.83957031 40.55773437 -4.86664063 39.74046875 -4.89453125 38.8984375 C-4.94673828 37.95871094 -4.94673828 37.95871094 -5 37 C-6.2375 36.608125 -7.475 36.21625 -8.75 35.8125 C-28.36315354 29.21281327 -28.36315354 29.21281327 -33.875 21.3125 C-35.42800052 16.73977626 -35.90707255 12.76968983 -35 8 C-32.36888025 2.74772685 -27.85572023 -0.25089984 -22.48828125 -2.34375 C-14.93337952 -4.33625156 -6.97195076 -3.54220079 0 0 Z " fill="#090909" transform="translate(161,39)"/>
<path d="M0 0 C2.875 2.625 2.875 2.625 5 5 C5.495 5.495 5.495 5.495 6 6 C6.14680041 8.2315175 6.22757044 10.46742842 6.28125 12.703125 C6.30886414 13.71533112 6.30886414 13.71533112 6.33703613 14.74798584 C6.39594333 16.91523283 6.44863436 19.08256196 6.5 21.25 C6.55152915 23.40314812 6.60455588 25.55619435 6.66296387 27.70916748 C6.71625138 29.67351791 6.76354661 31.63802815 6.81054688 33.60253906 C6.97311672 36.51790242 7.33208339 39.16473457 8 42 C6.04196493 42.05389087 4.08351091 42.09274217 2.125 42.125 C1.03445313 42.14820313 -0.05609375 42.17140625 -1.1796875 42.1953125 C-4 42 -4 42 -6 40 C-6.804375 40.495 -7.60875 40.99 -8.4375 41.5 C-12.81631033 43.34370961 -16.31325231 43.77272543 -21 43 C-25.64425866 40.50586109 -29.31375022 38.05874933 -31 33 C-31.4966805 28.65201006 -31.57726946 25.12944024 -29.5625 21.1875 C-22.02448269 14.75260718 -14.64025498 14.46360251 -5 15 C-5.8604139 10.66770285 -5.8604139 10.66770285 -8 7 C-10.67058851 6.85884839 -13.32432238 6.95752893 -16 7 C-16.66 8.32 -17.32 9.64 -18 11 C-21.96 11 -25.92 11 -30 11 C-29.9260095 7.8923991 -29.63075777 5.72426634 -27.55078125 3.3359375 C-19.34468717 -3.89112149 -9.83449256 -5.59216244 0 0 Z " fill="#070707" transform="translate(304,55)"/>
<path d="M0 0 C4.34351717 2.59696606 7.00124671 6.40093093 9.23046875 10.859375 C10.12835624 15.52838997 9.85546875 20.35480848 9.85546875 25.109375 C0.28546875 25.109375 -9.28453125 25.109375 -19.14453125 25.109375 C-16.16148161 31.8320249 -16.16148161 31.8320249 -13.14453125 33.109375 C-11.35700633 33.25691674 -9.56290285 33.3305272 -7.76953125 33.359375 C-6.33480469 33.39804688 -6.33480469 33.39804688 -4.87109375 33.4375 C-1.7406135 33.06076599 -0.52085365 32.09836732 1.85546875 30.109375 C2.51546875 30.109375 3.17546875 30.109375 3.85546875 30.109375 C7.85546875 34.46231618 7.85546875 34.46231618 7.85546875 38.109375 C6.24609375 39.4609375 6.24609375 39.4609375 4.10546875 40.734375 C3.409375 41.15976563 2.71328125 41.58515625 1.99609375 42.0234375 C-3.09508043 44.60618645 -8.54478477 44.82134277 -14.14453125 44.109375 C-19.94202753 42.11337985 -24.97073528 39.53127645 -28.14453125 34.109375 C-31.00458608 26.85003584 -31.87578615 17.4429937 -28.89453125 10.046875 C-22.30466988 -1.01467801 -12.23627953 -5.17782687 0 0 Z " fill="#080808" transform="translate(390.14453125,53.890625)"/>
<path d="M0 0 C0.66 0.33 1.32 0.66 2 1 C2.22393539 15.81166142 2.42488869 30.62348501 2.59840012 45.4358263 C2.67949989 52.31329049 2.76815029 59.19050323 2.87451172 66.06762695 C2.97707383 72.70045989 3.05867951 79.33333437 3.12732697 85.96661949 C3.15701906 88.50133109 3.19381536 91.03596945 3.2377243 93.57047462 C3.29788185 97.11191422 3.33310826 100.65276927 3.36230469 104.19458008 C3.39790245 105.77737762 3.39790245 105.77737762 3.43421936 107.39215088 C3.43713486 108.35548843 3.44005035 109.31882599 3.4430542 110.31135559 C3.45411572 111.14926541 3.46517723 111.98717524 3.47657394 112.85047626 C3 115 3 115 1.43923855 116.61224985 C-1.85889647 118.48864991 -4.81392691 118.4028405 -8.50439072 118.35352612 C-9.26708588 118.35529927 -10.02978104 118.35707243 -10.81558818 118.35889933 C-13.38621848 118.36117544 -15.95624032 118.34188549 -18.52679443 118.32279968 C-20.38228051 118.31997862 -22.23776899 118.3184794 -24.09325719 118.31819278 C-29.20362752 118.31355809 -34.31376717 118.29009604 -39.42406487 118.26365387 C-44.93049768 118.23842749 -50.43695794 118.23052735 -55.94343567 118.22055054 C-65.48763466 118.20087367 -75.0317473 118.17015614 -84.57588959 118.13199425 C-98.37520288 118.07683409 -112.17452312 118.03824014 -125.97390166 118.003723 C-148.36106174 117.94727337 -170.74816184 117.87740368 -193.13525391 117.79907227 C-214.88556196 117.72300083 -236.63587527 117.65324259 -258.38623047 117.59204102 C-259.05653547 117.59015238 -259.72684047 117.58826375 -260.41745774 117.58631788 C-267.1488655 117.56735861 -273.88027362 117.5485278 -280.611682 117.5297911 C-337.07452108 117.37261625 -393.53727538 117.19376233 -450 117 C-450.02332986 102.15352051 -450.0409796 87.30704343 -450.05181217 72.46054935 C-450.05697494 65.56752473 -450.06401728 58.67451147 -450.07543945 51.78149414 C-450.086447 45.13553835 -450.09227622 38.48959131 -450.09487724 31.84362602 C-450.09673201 29.30177054 -450.1003536 26.75991574 -450.10573006 24.21806526 C-450.11293667 20.67148538 -450.1139911 17.1249551 -450.11352539 13.57836914 C-450.11712067 12.51598022 -450.12071594 11.45359131 -450.12442017 10.35900879 C-450.1230455 9.39842056 -450.12167084 8.43783234 -450.12025452 7.44813538 C-450.12117631 6.60838197 -450.1220981 5.76862856 -450.12304783 4.90342808 C-450 3 -450 3 -449 2 C-446.63059222 1.89708371 -444.29011099 1.85977262 -441.91998482 1.86412811 C-441.1667151 1.86158549 -440.41344538 1.85904287 -439.63734931 1.8564232 C-437.08090301 1.84902939 -434.5245044 1.84882647 -431.9680481 1.84851074 C-430.12966121 1.84466464 -428.2912752 1.84037789 -426.45289028 1.83568525 C-421.37584014 1.82399654 -416.298799 1.81854965 -411.2217381 1.81405044 C-405.75606444 1.80812013 -400.29040287 1.79644792 -394.82473755 1.78541565 C-385.34602297 1.76703401 -375.86730813 1.75220146 -366.38858414 1.73963928 C-352.68050114 1.72138021 -338.97243539 1.6967148 -325.26436602 1.67026538 C-303.02211556 1.62743215 -280.77986001 1.58831461 -258.53759766 1.55224609 C-257.87157298 1.5511649 -257.2055483 1.5500837 -256.51934106 1.54896974 C-246.38789423 1.53252673 -236.25644714 1.51624657 -226.125 1.5 C-215.32438136 1.48267935 -204.52376282 1.4652952 -193.72314453 1.44775391 C-193.05777631 1.44667444 -192.39240809 1.44559497 -191.7068772 1.4444828 C-168.88134225 1.40742618 -146.05581575 1.36648095 -123.23029315 1.32245111 C-109.55147534 1.29625495 -95.8726602 1.2736057 -82.19382928 1.25546753 C-72.82563395 1.24282543 -63.45744885 1.22670873 -54.08926405 1.20781839 C-48.67737298 1.19703338 -43.26549188 1.18792442 -37.85359192 1.18312263 C-32.90542926 1.17870727 -27.95729661 1.16978272 -23.00914823 1.15717942 C-21.21304251 1.15342647 -19.4169323 1.15138165 -17.62082268 1.15115923 C-15.19107875 1.15062223 -12.76142591 1.14404178 -10.33169746 1.13587189 C-9.62432629 1.1371804 -8.91695511 1.13848892 -8.18814844 1.13983709 C-5.17477416 1.1238578 -2.88483259 0.96161086 0 0 Z M-449 3 C-449 40.29 -449 77.58 -449 116 C-300.83 116 -152.66 116 0 116 C0 78.71 0 41.42 0 3 C-148.17 3 -296.34 3 -449 3 Z " fill="#C25964" transform="translate(492,10)"/>
<path d="M0 0 C147.84 0 295.68 0 448 0 C448 34.98 448 69.96 448 106 C447.67 106 447.34 106 447 106 C447 71.35 447 36.7 447 1 C390.45403421 1.10538052 333.90808041 1.21430582 277.36213732 1.33111694 C270.6939803 1.34488735 264.02582319 1.35861548 257.35766602 1.37231445 C256.36229692 1.37436058 256.36229692 1.37436058 255.34681936 1.37644804 C233.81901048 1.42067857 212.2911969 1.46166743 190.76337853 1.50098413 C168.02381766 1.5425314 145.28426641 1.58775351 122.54472059 1.63687855 C108.91433131 1.66620517 95.28394281 1.69256171 81.65354072 1.71517897 C72.32039002 1.73094592 62.98725139 1.75034741 53.65411408 1.77266841 C48.2607061 1.78545796 42.86730749 1.79658634 37.4738884 1.80341911 C32.54490969 1.80969867 27.6159632 1.82049913 22.68700211 1.8350333 C20.89561339 1.83949283 19.10421948 1.84223355 17.31282545 1.84316199 C14.89423246 1.84465642 12.47573462 1.85217898 10.05716038 1.8613348 C8.99260683 1.8598008 8.99260683 1.8598008 7.90654716 1.85823581 C4.67358919 1.60334983 4.67358919 1.60334983 2 3 C1.67 38.31 1.34 73.62 1 110 C148.18 110 295.36 110 447 110 C447.33 109.34 447.66 108.68 448 108 C448 108.99 448 109.98 448 111 C300.16 111 152.32 111 0 111 C0 74.37 0 37.74 0 0 Z " fill="#FFF0F4" transform="translate(43,14)"/>
<path d="M0 0 C15.84 0 31.68 0 48 0 C48 3.3 48 6.6 48 10 C42.06 10 36.12 10 30 10 C30 26.5 30 43 30 60 C26.04 60 22.08 60 18 60 C18 43.5 18 27 18 10 C12.06 10 6.12 10 0 10 C0 6.7 0 3.4 0 0 Z " fill="#030303" transform="translate(193,37)"/>
<path d="M0 0 C3.62539358 1.8451824 6.03217001 3.69321611 8.0625 7.3125 C8.0625 8.9625 8.0625 10.6125 8.0625 12.3125 C4.4325 12.3125 0.8025 12.3125 -2.9375 12.3125 C-3.2675 10.9925 -3.5975 9.6725 -3.9375 8.3125 C-5.37284841 8.0898254 -6.81095525 7.88488094 -8.25 7.6875 C-9.05050781 7.57148437 -9.85101563 7.45546875 -10.67578125 7.3359375 C-13.22473215 7.09716593 -13.22473215 7.09716593 -15.9375 9.3125 C-15.6075 10.9625 -15.2775 12.6125 -14.9375 14.3125 C-13.69613281 14.67601563 -12.45476562 15.03953125 -11.17578125 15.4140625 C-9.5335268 15.9208153 -7.89161738 16.42868721 -6.25 16.9375 C-5.43337891 17.17339844 -4.61675781 17.40929687 -3.77539062 17.65234375 C1.91285236 19.44863101 4.82702892 21.23649149 8.0625 26.3125 C8.94964704 29.44360721 8.75559288 32.14245226 8.0625 35.3125 C5.33905776 39.90830878 2.36788453 42.26415242 -2.6328125 43.83984375 C-9.6168395 45.27216115 -16.03714324 45.15837946 -22.28125 41.51171875 C-25.99694504 38.82134522 -27.6771073 36.46256774 -28.6875 32 C-28.77 31.113125 -28.8525 30.22625 -28.9375 29.3125 C-25.3075 29.3125 -21.6775 29.3125 -17.9375 29.3125 C-17.6075 30.9625 -17.2775 32.6125 -16.9375 34.3125 C-15.33523045 34.53495393 -13.73053233 34.73996669 -12.125 34.9375 C-11.23167969 35.05351563 -10.33835937 35.16953125 -9.41796875 35.2890625 C-6.68059609 35.54750743 -6.68059609 35.54750743 -3.9375 33.3125 C-4.4325 30.8375 -4.4325 30.8375 -4.9375 28.3125 C-5.96230469 27.98636719 -6.98710937 27.66023438 -8.04296875 27.32421875 C-9.40375123 26.88313753 -10.76442249 26.44171307 -12.125 26 C-12.79853516 25.78666016 -13.47207031 25.57332031 -14.16601562 25.35351562 C-19.06132046 23.75358673 -23.42819822 22.186116 -26.75 18.0625 C-28.26857326 14.54580403 -28.34468483 12.11289173 -27.9375 8.3125 C-26.025614 3.74521678 -23.15471752 1.77254355 -18.9375 -0.6875 C-12.71806645 -2.76064452 -6.06037402 -2.49249213 0 0 Z " fill="#080808" transform="translate(455.9375,53.6875)"/>
<path d="M0 0 C3.63 0 7.26 0 11 0 C17.4429642 17.46489037 17.4429642 17.46489037 18.67578125 25.3125 C18.8419609 27.02895767 18.8419609 27.02895767 20 28 C20.20681396 27.18732666 20.41362793 26.37465332 20.62670898 25.53735352 C21.39363106 22.53061409 22.16364615 19.52468916 22.93579102 16.51928711 C23.26972267 15.21687242 23.60240932 13.91413788 23.93383789 12.61108398 C24.40966781 10.74119333 24.8903076 8.8725287 25.37109375 7.00390625 C25.65911865 5.87799072 25.94714355 4.7520752 26.24389648 3.59204102 C27 1 27 1 28 0 C30.01964199 -0.07244053 32.04167124 -0.08377188 34.0625 -0.0625 C35.71958984 -0.04896484 35.71958984 -0.04896484 37.41015625 -0.03515625 C38.26480469 -0.02355469 39.11945313 -0.01195312 40 0 C37.29845749 10.39684542 34.08972177 20.52210758 30.015625 30.46484375 C28.22546228 34.9333653 26.62626489 39.46969068 25 44 C21.37 44 17.74 44 14 44 C11.4348342 37.71976649 9.10361784 31.44689289 7 25 C6.55684448 23.64612183 6.55684448 23.64612183 6.10473633 22.26489258 C5.16700762 19.3871375 4.23881741 16.50644665 3.3125 13.625 C2.99216797 12.64144531 2.67183594 11.65789062 2.34179688 10.64453125 C1.88836914 9.23107422 1.88836914 9.23107422 1.42578125 7.7890625 C1.15161377 6.94037598 0.87744629 6.09168945 0.5949707 5.21728516 C0 3 0 3 0 0 Z " fill="#080808" transform="translate(316,53)"/>
<path d="M0 0 C3.96 0 7.92 0 12 0 C12 20.79 12 41.58 12 63 C8.04 63 4.08 63 0 63 C0 42.21 0 21.42 0 0 Z " fill="#0E0E0E" transform="translate(407,34)"/>
<path d="M0 0 C0 3.96 0 7.92 0 12 C-2.5390625 12.1953125 -5.078125 12.390625 -7.6171875 12.5859375 C-10.17941903 12.79568132 -10.17941903 12.79568132 -12 15 C-12.37322427 18.10756015 -12.37322427 18.10756015 -12.4140625 21.7578125 C-12.43342865 22.42086395 -12.4527948 23.08391541 -12.4727478 23.76705933 C-12.53255954 25.88624177 -12.57893388 28.0054785 -12.625 30.125 C-12.66317845 31.56122169 -12.70223011 32.99742045 -12.7421875 34.43359375 C-12.83826125 37.95551936 -12.92228642 41.47761608 -13 45 C-16.96 45 -20.92 45 -25 45 C-25 30.48 -25 15.96 -25 1 C-21.37 1 -17.74 1 -14 1 C-14 2.65 -14 4.3 -14 6 C-13.34 6 -12.68 6 -12 6 C-11.731875 5.38125 -11.46375 4.7625 -11.1875 4.125 C-8.49454698 -0.69396856 -4.97879637 -0.18787911 0 0 Z " fill="#0C0C0C" transform="translate(270,52)"/>
<path d="M0 0 C0.71611974 0.00262701 1.43223949 0.00525403 2.17005983 0.00796065 C2.92760509 0.0068068 3.68515034 0.00565296 4.46565151 0.00446415 C7.03662138 0.00179035 9.60753021 0.00632587 12.17849699 0.01075396 C14.02727076 0.01031841 15.87604446 0.00944381 17.72481784 0.00816479 C22.83047136 0.00591657 27.93610412 0.00994556 33.04175499 0.01494285 C38.53803961 0.01924251 44.03432297 0.01780128 49.5306088 0.01704058 C59.06171987 0.01651504 68.59282411 0.01966501 78.12393346 0.02527842 C91.90449012 0.03338931 105.68504346 0.03600822 119.46560224 0.03726641 C141.82110979 0.03945758 164.17661401 0.04611086 186.53211942 0.05556902 C208.25444996 0.06474872 229.97677952 0.07183465 251.69911161 0.07607684 C252.70291989 0.07627412 252.70291989 0.07627412 253.72700713 0.0764754 C260.44725067 0.07779388 267.16749422 0.0790697 273.88773777 0.08031426 C330.2753044 0.09076096 386.66286699 0.10841236 443.05042997 0.13100848 C443.05042997 0.46100848 443.05042997 0.79100848 443.05042997 1.13100848 C295.87042997 1.46100848 148.69042997 1.79100848 -2.94957003 2.13100848 C-3.27957003 39.09100848 -3.60957003 76.05100848 -3.94957003 114.13100848 C-4.27957003 114.13100848 -4.60957003 114.13100848 -4.94957003 114.13100848 C-5.1033368 99.41496699 -5.25137362 84.69887728 -5.39253363 69.98270926 C-5.45820683 63.15019441 -5.52577597 56.31770801 -5.59776339 49.48525652 C-5.66716535 42.89769586 -5.73134348 36.31009795 -5.79226527 29.72245249 C-5.81643329 27.20290991 -5.84238362 24.68338381 -5.87010416 22.16387782 C-5.90848434 18.64847171 -5.94065793 15.13306159 -5.97129855 11.61758074 C-5.98424456 10.56454256 -5.99719057 9.51150439 -6.01052889 8.42655596 C-6.01756838 7.47438189 -6.02460787 6.52220782 -6.03186068 5.54117998 C-6.04430488 4.29261139 -6.04430488 4.29261139 -6.05700049 3.01881918 C-5.83548794 -0.8736874 -3.29096611 0.01147666 0 0 Z " fill="#D1505F" transform="translate(45.949570029973984,10.868991523981094)"/>
<path d="M0 0 C3.5578125 -0.12375 3.5578125 -0.12375 7.1875 -0.25 C7.92508545 -0.28641602 8.6626709 -0.32283203 9.42260742 -0.36035156 C12.92723504 -0.4190381 14.92224925 -0.04560282 17.95703125 1.734375 C20.23658138 4.26236559 20.63722457 5.16086883 20.5 8.5 C20.33341459 11.39382651 20.05212655 12.90071133 18.6875 15.5 C13.92429776 19.73395754 5.86337511 18.05379243 0 18 C0 12.06 0 6.12 0 0 Z " fill="#F5F5F5" transform="translate(84,47)"/>
<path d="M0 0 C1.33804687 0.04060547 1.33804687 0.04060547 2.703125 0.08203125 C3.37859375 0.11683594 4.0540625 0.15164062 4.75 0.1875 C5.35550459 7.45355505 5.35550459 7.45355505 2.6875 10.6875 C-0.90750336 12.5232464 -3.26290927 12.63886876 -7.25 12.1875 C-9.25 10.1875 -9.25 10.1875 -9.625 6.75 C-9.25 3.1875 -9.25 3.1875 -7.5546875 1.4765625 C-4.80061227 -0.06385246 -3.13053859 -0.12357389 0 0 Z " fill="#F4F4F4" transform="translate(294.25,76.8125)"/>
<path d="M0 0 C1.77734375 1.15234375 1.77734375 1.15234375 3 3 C3 4.98 3 6.96 3 9 C-2.28 9 -7.56 9 -13 9 C-13 4 -13 4 -11.5625 1.6875 C-7.90844692 -0.71882764 -4.26857557 -0.87258175 0 0 Z " fill="#F5F5F5" transform="translate(385,62)"/>
</svg>
